<svg version="1.1" width="421" height="263" viewBox="-1 -1 421 263" xmlns="http://www.w3.org/2000/svg" xmlns:xlink="http://www.w3.org/1999/xlink">
  <!-- Exported by Scratch - http://scratch.mit.edu/ -->
  <path id="ID0.04728178074583411" fill="#909090" stroke="#707070" stroke-width="15" d="M 8 196 L 480 196 L 427.500 97.500 L 286.200 -35.900 L 17.300 -164.850 L 195.050 -163.350 L 505 -115.950 L 486.750 24.900 L 682.750 304.400 L 8 360 L -677.700 122.700 L -281.200 122.700 L 5.950 161.250 L 8 196 Z " transform="matrix(0.05485232546925545, 0, 0, 0.16867469251155853, 231.3, 98.05)"/>
  <path id="ID0.04728178074583411" fill="#909090" stroke="#707070" stroke-width="15" d="M 2820.300 723.850 L 31 712 L -2639.800 412.650 L -2493.950 -352.150 L -1892.350 -639.700 L -1236.050 -773.050 L -680 -808.650 L -297.150 -749.350 L 422.950 -728.600 L 824.050 -669.300 L 1343.600 -648.550 L 1598.850 -595.200 L 1772.050 -485.550 L 1535.050 -556.700 L 1051.950 -610.050 L 477.650 -636.700 L -196.900 -657.450 L -1017.250 -710.800 L -1354.550 -678.200 L -1974.400 -506.300 L -1782.950 -408.500 L -1782.950 -322.500 L -2074.650 -183.200 L -2120.250 6.500 L -2010.850 101.350 L -1755.600 163.600 L -1172.250 214 L -730.150 142.900 L -447.550 36.150 L -269.800 -5.350 L -192.350 -101.650 L -119.400 -166.900 L -110.300 -241 L -192.350 -281.050 L -370.100 -332.900 L -110.300 -303.250 L -14.600 -273.650 L 53.800 -186.150 L 58.350 -75 L 268 12.450 L 869.600 202.200 L 1562.400 300 L 2815.750 154.100 L 3558.650 3.550 L 3677.150 208.050 L 2820.300 723.850 Z " transform="matrix(0.05485232546925545, 0, 0, 0.16867469251155853, 145.3, 137.9)"/>
  <path id="ID0.04728178074583411" fill="#909090" stroke="#707070" stroke-width="15" d="M 16.400 329.600 L 253.400 261.750 L 453.950 294.050 L 480 360 L 16.400 329.600 Z " transform="matrix(0.05485232546925545, 0, 0, -0.16867470741271973, 350.35, 187.6)"/>
  <path id="ID0.04728178074583411" fill="#909090" stroke="#707070" stroke-width="15" d="M 16.400 329.600 L -53.750 278.650 L 69.300 241.600 L 253.400 261.750 L 538.700 346.800 L 319.950 345.350 L 16.400 329.600 Z " transform="matrix(0.05485232546925545, 0, 0, -0.16867470741271973, 388.2, 179.5)"/>
  <path id="ID0.8663970143534243" fill="#909090" stroke="#707070" stroke-width="2" stroke-linecap="round" d="M 354.250 153.500 L 388.500 155 L 431.250 165.250 L 384.250 170.250 L 361 162.250 L 354.250 153.500 Z " transform="matrix(1, 0, 0, 1, -37, -70.25)"/>
  <path id="ID0.04728178074583411" fill="#909090" stroke="#707070" stroke-width="15" d="M 16.400 329.600 L 74.750 273.600 L 253.400 261.750 L 361.900 278.050 L 311.750 313.600 L 480 360 L 16.400 329.600 Z " transform="matrix(-0.05485232546925545, 0, 0, -0.16867472231388092, 302.6, 133.4)"/>
  <path id="ID0.04728178074583411" fill="#909090" stroke="#707070" stroke-width="15" d="M 16.400 329.600 L 84.750 278.950 L 253.400 261.750 L 480 360 L 16.400 329.600 Z " transform="matrix(-0.05485232546925545, 0, 0, -0.16867472231388092, 216.9, 122.05)"/>
  <path id="ID0.04728178074583411" fill="#909090" stroke="#707070" stroke-width="15" d="M 16.400 329.600 L 253.400 261.750 L 405.650 288.450 L 480 360 L 16.400 329.600 Z " transform="matrix(-0.05485232546925545, 0, 0, -0.16867472231388092, 179.5, 112.15)"/>
  <path id="ID0.04728178074583411" fill="#909090" stroke="#707070" stroke-width="15" d="M 16.400 329.600 L 95.750 278.050 L 253.400 261.750 L 350.950 226.150 L 492.250 285.450 L 480 360 L 16.400 329.600 Z " transform="matrix(-0.05485232546925545, 0, 0, -0.16867472231388092, 141.5, 104.15)"/>
  <path id="ID0.04728178074583411" fill="#909090" stroke="#707070" stroke-width="15" d="M 16.400 329.600 L 300.550 242.550 L 426.400 279.450 L 480 360 L 16.400 329.600 Z " transform="matrix(0.040550097823143005, 0.006790379993617535, 0.020880889147520065, -0.12469436973333359, 160.75, 163.45)"/>
  <path id="ID0.04728178074583411" fill="#909090" stroke="#707070" stroke-width="15" d="M 16.400 329.600 L 124.100 269.550 L 253.400 261.750 L 328.450 218.700 L 388.100 265.500 L 327.850 308.950 L 480 360 L 16.400 329.600 Z " transform="matrix(-0.04767526686191559, 0.027126489207148552, -0.08341584354639053, -0.1466047763824463, 134.15, 90.4)"/>
</svg>