<svg version="1.1" width="334" height="190" viewBox="13 110 334 190" xmlns="http://www.w3.org/2000/svg" xmlns:xlink="http://www.w3.org/1999/xlink">
  <!-- Exported by Scratch - http://scratch.mit.edu/ -->
  <path id="ID0.04728178074583411" fill="#909090" stroke="#707070" stroke-width="15" d="M 68.600 267.550 L -106.150 199.100 L 211.600 230.650 L 878.900 42 L 1000.950 -60.650 L 814.200 -102.250 L 858.050 -162.100 L 322.950 -134.850 L 666.800 -214.300 L 415.550 -252.750 L 411.900 -338.950 L 205.950 -307.200 L -41 -228 L 37.150 -302.050 L 224.300 -407.650 L -110.350 -378.400 L -337.450 -372.300 L -52 -415.100 L -14.800 -477.400 L -283.450 -490.950 L -519.050 -403.100 L -371.950 -536.750 L -794.500 -450.450 L -688.450 -500.850 L -775.500 -519.400 L -951.850 -508.050 L -1100.950 -540.350 L -1338.700 -511.350 L -1392.550 -464.100 L -1376.050 -377.700 L -1419.350 -281.950 L -1702.300 -376.650 L -1834.650 -447.450 L -2170.600 -516.950 L -2328.750 -570.400 L -1916.250 -530.950 L -1683.100 -534.800 L -1447.600 -551.250 L -1176.550 -585.900 L -1466.350 -660.800 L -1887.950 -685.750 L -2629 -693.750 L -3035.600 -623.950 L -3218.150 -579.150 L -3322.750 -501.400 L -3060.300 -382.950 L -3030.950 -296.300 L -2754.750 -253.150 L -2692.050 -172.150 L -2530.700 -242.500 L -2565.750 -121.400 L -2298.500 -135.150 L -2374.400 -37.900 L -2128.400 -5.850 L -2036.200 54.700 L -1796.900 17.350 L -1894 124.650 L -1570.550 15.400 L -1760.100 169.250 L -1445.900 145.900 L -1555.850 253 L -1374.250 283.800 L -1055.450 235.350 L -855.600 237.100 L -1124.450 294.900 L -1204.100 377.350 L -911.100 364.150 L -1172.450 451.450 L -871.200 463.600 L -814.500 506.700 L -540.450 491 L -864.550 568.700 L -1077.250 531 L -1350.350 435.400 L -2334.500 97.250 L -3162.850 -210.650 L -3695.250 -477.100 L -3736.550 -639.550 L -3403.250 -767.500 L -2993.700 -782.700 L -2610.550 -829.900 L -2114.800 -786.700 L -1694.750 -753.400 L -1367.750 -740.800 L -1070.400 -672.050 L -810.800 -643.900 L -478.450 -660.600 L -159.050 -641.800 L 260.900 -537.100 L 604.400 -438.100 L 782.250 -422.050 L 998.500 -298.200 L 1207.750 -132.250 L 1387.700 -21.700 L 1177.200 -0.550 L 908.400 124.200 L 938.900 204.650 L 1172.200 305.700 L 1380.200 404.250 L 1367.250 457.500 L 1245.850 415.300 L 1011.700 336.200 L 890.700 274.050 L 754.900 222.050 L 703.050 156.150 L 509.800 259.500 L 614.150 324.550 L 646.550 394.450 L 617.650 482.100 L 473.050 496.100 L 330.850 426.150 L 163.700 351.500 L 68.600 267.550 Z " transform="matrix(-0.0364166758954525, 0.04101954773068428, -0.12613797187805176, -0.11198382079601288, 124.75, 218.65)"/>
</svg>