<svg version="1.1" width="451" height="191" viewBox="-1 -1 451 191" xmlns="http://www.w3.org/2000/svg" xmlns:xlink="http://www.w3.org/1999/xlink">
  <!-- Exported by Scratch - http://scratch.mit.edu/ -->
  <path id="ID0.04728178074583411" fill="#909090" stroke="#707070" stroke-width="15" d="M 16.400 329.600 L -500.400 266.800 L -928.850 308.300 L -1129.400 272.750 L -1174.950 293.500 L -1102.050 337.950 L -1339.050 332 L -1275.250 278.650 L -1284.350 266.800 L -1639.850 246.050 L -1676.300 302.350 L -1576.050 355.750 L -1876.850 352.750 L -1794.800 272.750 L -1849.500 228.250 L -2195.900 160.100 L -2223.250 287.550 L -2086.500 364.600 L -2314.400 394.250 L -2287.050 317.200 L -2460.250 201.600 L -2551.400 142.300 L -2779.300 171.950 L -2779.300 275.700 L -2606.100 394.250 L -2852.200 400.200 L -2770.150 352.750 L -3143.900 234.200 L -3216.800 358.700 L -3016.300 415 L -3307.950 459.500 L -3362.650 296.450 L -3636.150 252 L -3526.750 38.550 L -2925.150 -50.400 L -1257 56.350 L -181.400 14.850 L 939.800 299.400 L 994.450 607.650 L 1814.850 696.600 L 2389.100 711.450 L 2653.450 761.800 L 2088.300 764.800 L 885.100 681.800 L 793.950 785.550 L 1386.450 835.950 L 1577.850 889.300 L 948.900 898.200 L 693.650 850.750 L 511.350 835.950 L 183.200 945.600 L 237.900 993.050 L 967.150 1055.300 L -473.050 1052.350 L -35.550 984.150 L -154.050 877.450 L -792.100 880.400 L -947.100 874.500 L -983.550 918.950 L -764.800 1019.750 L -1001.800 999 L -1220.550 945.600 L -1111.200 886.350 L -1539.550 918.950 L -1402.850 871.500 L -372.800 788.500 L 319.950 815.200 L 684.550 581 L 657.200 418 L 480 360 L 16.400 329.600 Z " transform="matrix(-0.05485232546925545, 0, 0, -0.16867472231388092, 147.55, 179.5)"/>
  <path id="ID0.04728178074583411" fill="#909090" stroke="#707070" stroke-width="15" d="M 16.400 329.600 L 253.400 261.750 L 279.150 224.450 L 407.500 216.750 L 525.150 258.650 L 534.350 324.850 L 308.800 312.600 L 16.400 329.600 Z " transform="matrix(-0.053149256855249405, 0.013562224805355072, -0.04170478507876396, -0.16343767940998077, 377.95, 143.35)"/>
  <path id="ID0.04728178074583411" fill="#909090" stroke="#707070" stroke-width="15" d="M 104.800 325.600 L 253.400 261.750 L 385.850 231.150 L 485.500 296 L 375.400 340.400 L 104.800 325.600 Z " transform="matrix(-0.053149256855249405, 0.013562224805355072, -0.04170478507876396, -0.16343767940998077, 411.15, 132)"/>
  <path id="ID0.8663970143534243" fill="#909090" stroke="#707070" stroke-width="2" stroke-linecap="round" d="M 354.250 153.500 L 375 152 L 393.750 160.250 L 436.500 165.250 L 396.750 169.750 L 378.500 169.250 L 361 162.250 L 354.250 153.500 Z " transform="matrix(1, 0, 0, 1, -30, -107.25)"/>
  <path id="ID0.04728178074583411" fill="#909090" stroke="#707070" stroke-width="15" d="M -36.750 310.700 L -284.900 237.650 L -50.950 211.750 L 253.400 261.750 L 410.900 369.750 L -36.750 310.700 Z " transform="matrix(-0.0364166758954525, 0.04101954773068428, -0.12613797187805176, -0.11198382079601288, 466.85, 97.75)"/>
  <path id="ID0.04728178074583411" fill="#909090" stroke="#707070" stroke-width="15" d="M 16.400 329.600 L 159.150 249.650 L 270.050 288.550 L 441.150 304.200 L 480 360 L 16.400 329.600 Z " transform="matrix(-0.054453860968351364, -0.006599580869078636, 0.020294176414608955, -0.16744942963123322, 305.35, 99.35)"/>
  <path id="ID0.04728178074583411" fill="#909090" stroke="#707070" stroke-width="15" d="M 42.100 302.400 L 242.800 262.450 L 412.450 304.050 L 476.450 384.350 L 242.500 358.800 L 42.100 302.400 Z " transform="matrix(-0.053149256855249405, 0.013562224805355072, -0.04170478507876396, -0.16343767940998077, 287.85, 79.35)"/>
</svg>